<?xml version="1.0" encoding="utf-8"?>
<!-- Generator: Adobe Illustrator 26.0.3, SVG Export Plug-In . SVG Version: 6.00 Build 0)  -->
<svg version="1.1" id="Layer_1" xmlns="http://www.w3.org/2000/svg" xmlns:xlink="http://www.w3.org/1999/xlink" x="0px" y="0px"
	 viewBox="0 0 104.6 26" style="enable-background:new 0 0 104.6 26;" xml:space="preserve">
<style type="text/css">
	.st0{clip-path:url(#SVGID_00000127015089909226502640000004784910526035528340_);}
	.st1{fill:#FE4F70;}
	.st2{fill:#203656;}
</style>
<g>
	<defs>
		<rect id="SVGID_1_" x="-13.4" width="118" height="26"/>
	</defs>
	<clipPath id="SVGID_00000152248805118880267000000002097225309885004212_">
		<use xlink:href="#SVGID_1_"  style="overflow:visible;"/>
	</clipPath>
	<g style="clip-path:url(#SVGID_00000152248805118880267000000002097225309885004212_);">
		<circle class="st1" cx="97.6" cy="21" r="4"/>
	</g>
</g>
<g>
	<path class="st2" d="M1.5,7.3c1-1.8,2.3-3.1,4.1-4.1c1.7-1,3.7-1.5,5.9-1.5c2.7,0,5,0.7,7,2.1c1.9,1.4,3.2,3.4,3.9,5.9h-6.1
		c-0.5-1-1.1-1.7-1.9-2.2c-0.8-0.5-1.8-0.7-2.8-0.7c-1.7,0-3.1,0.6-4.2,1.8c-1.1,1.2-1.6,2.8-1.6,4.8c0,2,0.5,3.6,1.6,4.8
		c1.1,1.2,2.5,1.8,4.2,1.8c1.1,0,2-0.2,2.8-0.7c0.8-0.5,1.5-1.2,1.9-2.2h6.1c-0.7,2.5-1.9,4.4-3.9,5.8c-1.9,1.4-4.3,2.1-7,2.1
		c-2.2,0-4.2-0.5-5.9-1.5c-1.7-1-3.1-2.4-4.1-4.1S0,15.5,0,13.3S0.5,9,1.5,7.3z"/>
	<path class="st2" d="M43.7,6.6v18.2h-5.6v-2.5c-0.6,0.8-1.3,1.4-2.3,1.9c-1,0.5-2,0.7-3.2,0.7c-1.4,0-2.6-0.3-3.7-0.9
		c-1.1-0.6-1.9-1.5-2.5-2.7c-0.6-1.2-0.9-2.5-0.9-4.1V6.6h5.5v9.9c0,1.2,0.3,2.2,0.9,2.8c0.6,0.7,1.5,1,2.5,1c1.1,0,1.9-0.3,2.6-1
		c0.6-0.7,0.9-1.6,0.9-2.8V6.6H43.7z"/>
	<path class="st2" d="M55.5,7.1c1-0.5,2.1-0.8,3.4-0.8c1.5,0,2.9,0.4,4.1,1.1c1.2,0.8,2.2,1.8,2.9,3.3c0.7,1.4,1.1,3,1.1,4.9
		c0,1.9-0.4,3.5-1.1,4.9c-0.7,1.4-1.7,2.5-2.9,3.3c-1.2,0.8-2.6,1.2-4.1,1.2c-1.3,0-2.4-0.3-3.4-0.8c-1-0.5-1.7-1.2-2.2-2v2.5h-5.6
		V0.7h5.6v8.5C53.7,8.3,54.5,7.6,55.5,7.1z M60,12.4c-0.8-0.8-1.7-1.2-2.8-1.2c-1.1,0-2,0.4-2.8,1.2c-0.8,0.8-1.2,1.9-1.2,3.3
		s0.4,2.5,1.2,3.3s1.7,1.2,2.8,1.2s2-0.4,2.8-1.2c0.8-0.8,1.2-1.9,1.2-3.3S60.8,13.2,60,12.4z"/>
	<path class="st2" d="M86.8,17H74.2c0.1,1.1,0.4,2,1.1,2.6c0.6,0.6,1.4,0.9,2.4,0.9c1.4,0,2.4-0.6,2.9-1.8h5.9
		c-0.3,1.2-0.9,2.3-1.6,3.2s-1.8,1.7-3,2.2c-1.2,0.5-2.5,0.8-4,0.8c-1.8,0-3.4-0.4-4.8-1.1c-1.4-0.8-2.5-1.8-3.3-3.3
		c-0.8-1.4-1.2-3.1-1.2-4.9c0-1.9,0.4-3.5,1.2-4.9c0.8-1.4,1.8-2.5,3.2-3.3c1.4-0.8,3-1.1,4.8-1.1c1.8,0,3.3,0.4,4.7,1.1
		c1.4,0.7,2.4,1.8,3.2,3.2c0.8,1.4,1.2,3,1.2,4.8C86.9,15.9,86.8,16.4,86.8,17z M81.2,13.9c0-1-0.3-1.7-1-2.3
		c-0.7-0.6-1.5-0.8-2.4-0.8c-0.9,0-1.7,0.3-2.4,0.8c-0.6,0.5-1,1.3-1.2,2.3H81.2z"/>
</g>
</svg>
